<?xml version="1.0" encoding="utf-8"?>
<!-- Generator: Adobe Illustrator 17.0.0, SVG Export Plug-In . SVG Version: 6.00 Build 0)  -->
<!DOCTYPE svg PUBLIC "-//W3C//DTD SVG 1.1//EN" "http://www.w3.org/Graphics/SVG/1.1/DTD/svg11.dtd">
<svg version="1.1" id="logo" xmlns="http://www.w3.org/2000/svg" xmlns:xlink="http://www.w3.org/1999/xlink" x="0px" y="0px"
	 width="323px" height="16px" viewBox="0 0 323 16" enable-background="new 0 0 323 16" xml:space="preserve">
<g>
	<path fill="#FFFFFF" d="M11.015,14V6.76L8.101,14H7.139L4.225,6.76V14H2.023V3.66h3.085L7.62,9.907l2.511-6.248h3.101V14H11.015z"
		/>
	<path fill="#FFFFFF" d="M19.74,8.837c0-3.116,2.278-5.348,5.395-5.348c3.132,0,5.411,2.232,5.411,5.348s-2.279,5.348-5.411,5.348
		C22.019,14.186,19.74,11.953,19.74,8.837z M28.282,8.837c0-1.938-1.24-3.395-3.147-3.395c-1.906,0-3.131,1.457-3.131,3.395
		c0,1.922,1.225,3.395,3.131,3.395C27.042,12.232,28.282,10.76,28.282,8.837z"/>
	<path fill="#FFFFFF" d="M39.642,14L35.643,3.66h2.511l2.868,7.953l2.853-7.953h2.512L42.401,14H39.642z"/>
	<path fill="#FFFFFF" d="M58.708,14l-0.636-1.752h-4.434L52.987,14h-2.511l3.999-10.34h2.76L61.22,14H58.708z M55.855,5.861
		l-1.612,4.45h3.225L55.855,5.861z"/>
	<path fill="#FFFFFF" d="M67.139,14V3.66h5.441c1.969,0,2.977,1.255,2.977,2.635c0,1.302-0.807,2.17-1.783,2.372
		c1.101,0.17,1.984,1.24,1.984,2.542C75.758,12.76,74.72,14,72.75,14H67.139z M73.309,6.683c0-0.651-0.465-1.132-1.209-1.132h-2.76
		v2.248h2.76C72.844,7.799,73.309,7.334,73.309,6.683z M73.51,10.899c0-0.651-0.465-1.209-1.333-1.209H69.34v2.403h2.837
		C73.014,12.094,73.51,11.644,73.51,10.899z"/>
	<path fill="#FFFFFF" d="M82.375,14V3.66h2.201v8.403h4.372V14H82.375z"/>
	<path fill="#FFFFFF" d="M95.441,14V3.66h7.317v1.938h-5.116v2.186h5.008v1.938h-5.008v2.342h5.116V14H95.441z"/>
	<path fill="#787878" d="M111.824,14V5.598h-3.022V3.66h8.247v1.938h-3.007V14H111.824z"/>
	<path fill="#787878" d="M126.303,14V9.768l-3.984-6.108h2.511l2.574,4.155l2.542-4.155h2.512l-3.953,6.108V14H126.303z"/>
	<path fill="#787878" d="M138.376,14V3.66h4.837c2.248,0,3.473,1.519,3.473,3.333c0,1.798-1.24,3.333-3.473,3.333h-2.636V14H138.376
		z M144.438,6.993c0-0.868-0.651-1.395-1.52-1.395h-2.341v2.79h2.341C143.786,8.388,144.438,7.845,144.438,6.993z"/>
	<path fill="#787878" d="M153.008,14V3.66h7.317v1.938h-5.116v2.186h5.008v1.938h-5.008v2.342h5.116V14H153.008z"/>
</g>
<g>
	<path fill="#747474" d="M172.972,7.553c-0.235-0.508-0.354-0.981-0.354-1.422c0-0.497,0.146-0.959,0.44-1.386
		c0.293-0.427,0.666-0.771,1.119-1.033c0.453-0.262,0.923-0.393,1.41-0.393c0.545,0,0.999,0.15,1.363,0.452s0.546,0.661,0.546,1.08
		c0,0.314-0.088,0.605-0.264,0.872c-0.175,0.267-0.359,0.4-0.554,0.4c-0.094,0-0.142-0.049-0.142-0.149
		c0-0.037,0.026-0.118,0.079-0.244c0.084-0.204,0.126-0.411,0.126-0.621c0-0.314-0.129-0.569-0.386-0.766
		c-0.256-0.197-0.565-0.295-0.927-0.295c-0.581,0-1.125,0.24-1.63,0.719c-0.506,0.479-0.758,1.028-0.758,1.646
		c0,0.277,0.036,0.512,0.109,0.703s0.141,0.315,0.2,0.373c0.061,0.058,0.146,0.087,0.256,0.087c0.723,0,1.084,0.209,1.084,0.628
		c0,0.105-0.038,0.204-0.114,0.299c-0.075,0.094-0.187,0.142-0.334,0.142c-0.162,0-0.369-0.107-0.62-0.322
		c-0.268-0.23-0.529-0.346-0.786-0.346c-0.329,0-0.643,0.164-0.938,0.491s-0.443,0.716-0.443,1.166c0,0.875,0.435,1.701,1.304,2.479
		c0.869,0.778,1.951,1.167,3.244,1.167c1.226,0,2.274-0.305,3.146-0.915s1.309-1.34,1.309-2.188c0-0.565-0.215-1.057-0.645-1.473
		s-1.011-0.625-1.744-0.625c-0.592,0-1.119,0.163-1.583,0.487c-0.463,0.325-0.695,0.73-0.695,1.218c0,0.294,0.084,0.534,0.252,0.723
		c0.167,0.188,0.34,0.283,0.519,0.283c0.204,0,0.306-0.11,0.306-0.33l-0.008-0.095c-0.005-0.067-0.008-0.114-0.008-0.141
		c0-0.23,0.063-0.421,0.188-0.57c0.126-0.148,0.286-0.224,0.479-0.224c0.184,0,0.343,0.064,0.479,0.192
		c0.136,0.129,0.204,0.308,0.204,0.538c0,0.33-0.114,0.605-0.342,0.825s-0.52,0.33-0.876,0.33c-0.424,0-0.789-0.15-1.096-0.452
		c-0.307-0.301-0.46-0.672-0.46-1.111c0-0.645,0.27-1.23,0.81-1.76c0.539-0.529,1.519-0.794,2.938-0.794
		c1.273,0,2.197-0.175,2.773-0.526c0.576-0.345,0.864-0.872,0.864-1.579c0-0.419-0.128-0.763-0.385-1.033
		c-0.257-0.27-0.581-0.404-0.975-0.404c-0.193,0-0.339,0.027-0.436,0.083c-0.097,0.055-0.146,0.14-0.146,0.255
		c0,0.073,0.047,0.178,0.142,0.314c0.12,0.173,0.181,0.341,0.181,0.503c0,0.194-0.074,0.364-0.224,0.511
		c-0.149,0.146-0.334,0.22-0.554,0.22c-0.263,0-0.461-0.083-0.598-0.251c-0.136-0.167-0.204-0.364-0.204-0.589
		c0-0.356,0.174-0.676,0.522-0.958s0.792-0.424,1.331-0.424c0.556,0,1.018,0.203,1.387,0.609s0.555,0.894,0.555,1.465
		c0,0.54-0.159,1.032-0.476,1.478c-0.317,0.445-0.718,0.759-1.202,0.942s-1.164,0.291-2.039,0.322
		c0.838,0.592,1.258,1.351,1.258,2.278c0,0.696-0.257,1.369-0.771,2.019c-0.513,0.649-1.135,1.132-1.865,1.445
		c-0.731,0.314-1.623,0.472-2.676,0.472c-0.854,0-1.545-0.093-2.073-0.279c-0.529-0.186-1.033-0.456-1.513-0.812
		s-0.856-0.792-1.131-1.309c-0.275-0.516-0.413-1.069-0.413-1.661c0-0.723,0.207-1.33,0.621-1.822
		C171.547,7.973,172.16,7.669,172.972,7.553z"/>
</g>
<g>
	<g>
		<path fill="#747474" d="M199.457,10.651l-2.434-6.046l-2.45,6.046l-0.294,0.806L193.256,14h-1.023l4.232-10.34h1.101L201.798,14
			h-1.023l-1.022-2.543L199.457,10.651z"/>
	</g>
	<g>
		<path fill="#747474" d="M208.539,8.915h2.898c1.38,0,2.295-0.931,2.295-2.232c0-1.302-0.915-2.217-2.295-2.217h-2.898h-0.884V3.66
			h3.86c1.782,0,3.146,1.131,3.146,3.023c0,1.876-1.317,2.915-2.868,2.977L214.786,14h-1.069l-2.899-4.279h-2.278V14h-0.884V8.915
			H208.539z"/>
	</g>
	<g>
		<path fill="#747474" d="M231.628,10.745l-0.883-0.274c-0.58,1.716-2.075,2.832-3.887,2.897c-2.355-0.066-4.183-1.912-4.183-4.53
			c0-2.651,1.83-4.469,4.188-4.531c1.677,0.061,3.082,1.008,3.74,2.517l0.841-0.359c-0.188-0.417-0.433-0.793-0.713-1.133
			l0.021-0.014c-0.868-1.101-2.124-1.829-3.768-1.829c-0.042,0-0.08,0.01-0.121,0.011c-0.057-0.002-0.111-0.011-0.168-0.011
			c-1.644,0-2.899,0.729-3.768,1.829l0.036,0.023c-0.752,0.909-1.218,2.096-1.218,3.496c0,1.392,0.461,2.573,1.206,3.48
			l-0.039,0.024c0.93,1.131,2.14,1.844,3.783,1.844c0.055,0,0.107-0.01,0.162-0.012c0.043,0.001,0.083,0.012,0.127,0.012
			c1.644,0,2.854-0.713,3.783-1.844l-0.027-0.017C231.116,11.866,231.424,11.34,231.628,10.745z"/>
	</g>
	<g>
		<path fill="#747474" d="M238.788,10.388V14h-0.884V3.66h0.884v5.659V10.388z M240.934,8.061l3.845-4.401h1.132l-4.402,4.93
			L246.33,14h-1.132l-4.264-4.868V8.061z"/>
	</g>
	<g>
		<path fill="#747474" d="M252.435,8.838c0-3.179,2.31-5.349,5.239-5.349c1.644,0,2.899,0.729,3.768,1.829l-0.744,0.48
			c-0.651-0.899-1.783-1.504-3.023-1.504c-2.418,0-4.31,1.846-4.31,4.543c0,2.666,1.892,4.542,4.31,4.542
			c1.24,0,2.372-0.604,3.023-1.504l0.76,0.466c-0.93,1.131-2.14,1.844-3.783,1.844C254.744,14.186,252.435,12.016,252.435,8.838z"/>
	</g>
	<g>
		<path fill="#747474" d="M268.585,14V3.66h0.899v9.534h6.008V14H268.585z"/>
	</g>
	<g>
		<path fill="#747474" d="M281.233,8.838c0-3.023,1.984-5.349,5.022-5.349c3.023,0,5.023,2.325,5.023,5.349
			c0,3.022-2,5.348-5.023,5.348C283.218,14.186,281.233,11.86,281.233,8.838z M290.349,8.838c0-2.62-1.612-4.543-4.093-4.543
			c-2.496,0-4.093,1.923-4.093,4.543c0,2.604,1.597,4.542,4.093,4.542C288.736,13.38,290.349,11.441,290.349,8.838z"/>
	</g>
	<g>
		<path fill="#747474" d="M298.423,10.031V3.66h0.898v6.356c0,2.093,1.101,3.364,3.132,3.364s3.132-1.271,3.132-3.364V3.66h0.899
			v6.372c0,2.559-1.364,4.154-4.031,4.154C299.803,14.186,298.423,12.574,298.423,10.031z"/>
	</g>
	<g>
		<path fill="#747474" d="M313.396,14V3.66h3.302c3.209,0,5.225,2.34,5.225,5.178c0,2.867-2.016,5.162-5.225,5.162H313.396z
			 M320.991,8.838c0-2.419-1.55-4.372-4.294-4.372h-2.418v8.728h2.418C319.426,13.193,320.991,11.256,320.991,8.838z"/>
	</g>
</g>
</svg>
