<?xml version="1.0" encoding="utf-8"?>
<!-- Generator: Adobe Illustrator 17.0.0, SVG Export Plug-In . SVG Version: 6.00 Build 0)  -->
<!DOCTYPE svg PUBLIC "-//W3C//DTD SVG 1.1//EN" "http://www.w3.org/Graphics/SVG/1.1/DTD/svg11.dtd">
<svg version="1.1" id="Layer_1" xmlns="http://www.w3.org/2000/svg" xmlns:xlink="http://www.w3.org/1999/xlink" x="0px" y="0px"
	 width="100px" height="110px" viewBox="0 0 100 110" enable-background="new 0 0 100 110" xml:space="preserve">
<g enable-background="new    ">
	<path fill="#FFFFFF" d="M5.908,23.354c0-1.129,0.396-2.072,1.189-2.83c0.792-0.757,1.77-1.136,2.931-1.136h11.974h46.125h18.992
		c1.272,0,2.317,0.47,3.138,1.41c0.819,0.913,1.13,1.991,0.933,3.235l-6.521,36.949c-0.168,0.96-0.632,1.763-1.39,2.407
		s-1.613,0.967-2.568,0.967H35.699c-0.057,0-0.127-0.027-0.21-0.082l-7.299,8.672h54.288c1.161,0,2.139,0.381,2.932,1.143
		c0.792,0.762,1.189,1.71,1.189,2.845c0,1.081-0.397,2.008-1.189,2.783c-0.793,0.776-1.771,1.163-2.932,1.163H19.693
		c-1.671,0-2.889-0.74-3.653-2.223c-0.765-1.564-0.595-2.963,0.51-4.199l13.847-16.672l-11.32-30.464h-9.048
		c-1.162,0-2.139-0.378-2.931-1.136C6.304,25.427,5.908,24.484,5.908,23.354z M14.639,88.586c0-1.623,0.629-3.025,1.889-4.207
		s2.769-1.773,4.526-1.773c1.729,0,3.222,0.592,4.482,1.773s1.89,2.584,1.89,4.207c0,1.622-0.63,3.023-1.89,4.207
		c-1.26,1.182-2.753,1.773-4.482,1.773c-1.728,0-3.229-0.592-4.504-1.773C15.275,91.609,14.639,90.208,14.639,88.586z M28.02,27.321
		l2.317,6.494H43.37l-0.779-6.494H28.02z M32.306,39.118l2.091,6.042h10.333l-0.724-6.042H32.306z M36.38,50.38l2.079,6.042h7.623
		l-0.724-6.042H36.38z M48.063,27.321l0.779,6.494h15.318l0.778-6.494H48.063z M49.479,39.118l0.725,6.042h12.598l0.725-6.042
		H49.479z M50.83,50.38l0.725,6.042h9.897l0.725-6.042H50.83z M66.93,56.422h10.283l1.08-6.042h-10.64L66.93,56.422z M68.278,45.16
		h10.948l1.082-6.042H69.003L68.278,45.16z M69.638,33.815h11.619l1.161-6.494H70.416L69.638,33.815z M71.563,88.586
		c0-1.623,0.614-3.025,1.845-4.207s2.754-1.773,4.57-1.773c1.729,0,3.222,0.592,4.481,1.773s1.89,2.584,1.89,4.207
		c0,1.622-0.63,3.023-1.89,4.207c-1.26,1.182-2.753,1.773-4.481,1.773c-1.787,0-3.303-0.592-4.549-1.773
		C72.185,91.609,71.563,90.208,71.563,88.586z"/>
</g>
</svg>
