<?xml version="1.0" encoding="utf-8"?>
<!-- Generator: Adobe Illustrator 17.0.0, SVG Export Plug-In . SVG Version: 6.00 Build 0)  -->
<!DOCTYPE svg PUBLIC "-//W3C//DTD SVG 1.1//EN" "http://www.w3.org/Graphics/SVG/1.1/DTD/svg11.dtd">
<svg version="1.1" id="icon" xmlns="http://www.w3.org/2000/svg" xmlns:xlink="http://www.w3.org/1999/xlink" x="0px" y="0px"
	 width="63px" height="45px" viewBox="0 0 63 45" enable-background="new 0 0 63 45" xml:space="preserve">
<g>
	<path fill="#6AC9DD" d="M1.828,8.272V0.721h5.335v1.166H3.194v1.959h3.887v1.166H3.194v3.261H1.828z"/>
	<path fill="#6AC9DD" d="M12.833,8.272l-1.728-2.819H9.75v2.819H8.385V0.721h3.42c1.541,0,2.544,0.974,2.544,2.366
		c0,1.347-0.91,2.072-1.844,2.219l1.903,2.966H12.833z M12.949,3.087c0-0.725-0.561-1.2-1.331-1.2H9.75v2.4h1.868
		C12.389,4.287,12.949,3.811,12.949,3.087z"/>
	<path fill="#6AC9DD" d="M15.711,8.272V0.721h5.334v1.166h-3.969v1.959h3.887v1.166h-3.887v2.095h3.969v1.166H15.711z"/>
	<path fill="#6AC9DD" d="M22.443,8.272V0.721h5.335v1.166h-3.969v1.959h3.887v1.166h-3.887v2.095h3.969v1.166H22.443z"/>
	<path fill="#6AC9DD" d="M34.029,8.272V1.887h-2.358V0.721h6.082v1.166h-2.357v6.386H34.029z"/>
	<path fill="#6AC9DD" d="M43.353,8.272l-1.728-2.819h-1.354v2.819h-1.365V0.721h3.42c1.541,0,2.545,0.974,2.545,2.366
		c0,1.347-0.911,2.072-1.845,2.219l1.902,2.966H43.353z M43.469,3.087c0-0.725-0.56-1.2-1.33-1.2h-1.868v2.4h1.868
		C42.909,4.287,43.469,3.811,43.469,3.087z"/>
	<path fill="#6AC9DD" d="M46.232,8.272V0.721h1.365v7.552H46.232z"/>
	<path fill="#6AC9DD" d="M54.705,8.272l-0.572-1.449h-3.572l-0.571,1.449h-1.553l3.059-7.552h1.704l3.059,7.552H54.705z
		 M52.347,2.056l-1.4,3.601h2.802L52.347,2.056z"/>
	<path fill="#6AC9DD" d="M57.105,8.272V0.721h1.365v6.386h3.432v1.166H57.105z"/>
</g>
<path fill="#6AC9DD" d="M43.581,30.303c0.029-0.278,0.044-0.591,0.044-0.876c0-4.332-3.367-7.883-7.625-8.175v8.581h4l-6.5,7.375
	L27,29.833h4v-7.291c-1.391,0.9-2.497,2.2-3.135,3.751c-0.721-0.808-1.759-1.331-2.928-1.331c-2.175,0-3.938,1.761-3.938,3.936
	c0,0.468,0.096,0.91,0.246,1.327c-0.103-0.005-0.204-0.016-0.308-0.016c-3.693,0-6.688,3.119-6.688,6.812
	c0,3.693,2.994,6.812,6.688,6.812h22c3.693,0,6.688-3.119,6.688-6.812C49.625,33.545,46.973,30.628,43.581,30.303z"/>
</svg>
