<?xml version="1.0" encoding="utf-8"?>
<!-- Generator: Adobe Illustrator 17.0.0, SVG Export Plug-In . SVG Version: 6.00 Build 0)  -->
<!DOCTYPE svg PUBLIC "-//W3C//DTD SVG 1.1//EN" "http://www.w3.org/Graphics/SVG/1.1/DTD/svg11.dtd">
<svg version="1.1" id="Layer_1" xmlns="http://www.w3.org/2000/svg" xmlns:xlink="http://www.w3.org/1999/xlink" x="0px" y="0px"
	 width="100px" height="110px" viewBox="0 0 100 110" enable-background="new 0 0 100 110" xml:space="preserve">
<g>
	<path fill="#2E9CB0" d="M43.5,3.919c-7.701,4.081-31,18-31,18s-11,5.122-11,18s0,32,0,32s-0.689,11.345,11,18s29,16,29,16
		s7.953,5.493,18,0s29-17,29-17s10-3.967,10-19s0-31,0-31s1.872-8.466-10-16s-30-18-30-18S51.201-0.162,43.5,3.919z"/>
</g>
<g enable-background="new    ">
	<path fill="#FFFFFF" d="M28.243,59.424c0-1.666,0.274-3.24,0.821-4.722c0.548-1.482,1.305-2.763,2.271-3.844
		c0.966-1.082,2.077-1.942,3.332-2.583c1.255-0.641,2.621-0.961,4.097-0.961c0.746,0,1.476,0.118,2.191,0.355
		c1.308-1.905,2.921-3.381,4.838-4.426c1.917-1.045,3.949-1.568,6.094-1.568c1.521,0,2.994,0.289,4.418,0.865
		c1.422,0.577,2.715,1.387,3.879,2.432s2.169,2.294,3.014,3.748c0.844,1.454,1.486,3.057,1.929,4.81
		c0.273-0.031,0.548-0.046,0.821-0.046c0.791,0,1.56,0.122,2.306,0.363c1.004,0.342,1.879,0.855,2.624,1.539
		c0.746,0.684,1.336,1.506,1.77,2.468s0.65,1.998,0.65,3.109c0,1.639-0.479,3.128-1.438,4.467c-0.274,0.414-0.67,0.614-1.188,0.599
		H31.233c-0.563,0-0.966-0.214-1.209-0.642C28.836,63.576,28.243,61.59,28.243,59.424z"/>
</g>
</svg>
