<?xml version="1.0" encoding="utf-8"?>
<!-- Generator: Adobe Illustrator 17.0.0, SVG Export Plug-In . SVG Version: 6.00 Build 0)  -->
<!DOCTYPE svg PUBLIC "-//W3C//DTD SVG 1.1//EN" "http://www.w3.org/Graphics/SVG/1.1/DTD/svg11.dtd">
<svg version="1.1" id="Layer_1" xmlns="http://www.w3.org/2000/svg" xmlns:xlink="http://www.w3.org/1999/xlink" x="0px" y="0px"
	 width="100px" height="110px" viewBox="0 0 100 110" enable-background="new 0 0 100 110" xml:space="preserve">
<g>
	<path fill="#2E9CB0" d="M43.5,3.919c-7.701,4.081-31,18-31,18s-11,5.122-11,18s0,32,0,32s-0.689,11.345,11,18s29,16,29,16
		s7.953,5.493,18,0s29-17,29-17s10-3.967,10-19s0-31,0-31s1.872-8.466-10-16s-30-18-30-18S51.201-0.162,43.5,3.919z"/>
</g>
<g enable-background="new    ">
	<path fill="#FFFFFF" d="M28.076,68.287c0.096-0.757,0.337-1.445,0.724-2.064c0.386-0.618,0.792-1.156,1.219-1.612
		c0.426-0.456,0.829-0.827,1.207-1.114c0.378-0.285,0.615-0.459,0.712-0.521l15.135-12.783c-0.505-1.152-0.758-2.203-0.758-3.153
		c0-1.526,0.351-3.048,1.051-4.566s1.703-2.884,3.007-4.099c1.271-1.214,2.672-2.141,4.205-2.779
		c1.467-0.607,2.942-0.911,4.426-0.911c0.081,0,0.162,0.008,0.244,0.023c0.163,0,0.294,0.031,0.392,0.093
		c0.098,0.062,0.293,0.233,0.587,0.514l0.66,0.631c0.325,0.358,0.325,0.693,0,1.004l-1.541,1.472l-1.662,1.588
		c-0.408,0.389-0.693,0.716-0.855,0.98c-0.163,0.265-0.253,0.518-0.27,0.759c-0.017,0.242-0.024,0.572-0.024,0.993v0.607
		c0,0.452,0.159,0.965,0.477,1.542c0.318,0.576,0.778,1.144,1.382,1.705c0.57,0.545,1.152,0.969,1.748,1.273
		c0.595,0.304,1.128,0.456,1.602,0.456h0.66c0.439,0,0.782-0.008,1.026-0.023c0.245-0.015,0.51-0.101,0.795-0.257
		s0.623-0.428,1.015-0.817l1.662-1.565l1.54-1.495c0.326-0.312,0.677-0.312,1.052,0l0.66,0.63c0.293,0.28,0.477,0.471,0.55,0.572
		c0.073,0.102,0.11,0.3,0.11,0.596c0,1.433-0.318,2.842-0.953,4.227c-0.669,1.464-1.639,2.803-2.91,4.018
		c-1.271,1.246-2.697,2.203-4.278,2.873s-3.179,1.004-4.792,1.004c-1.075,0-2.176-0.24-3.301-0.724L41.093,71.783
		c-0.065,0.092-0.249,0.318-0.551,0.679s-0.693,0.743-1.175,1.15c-0.481,0.406-1.048,0.794-1.701,1.161
		c-0.653,0.368-1.379,0.598-2.178,0.69c-0.261,0.03-0.522,0.046-0.783,0.046c-1.548,0-3.041-0.646-4.478-1.936l-0.047-0.043h-0.07
		c0-0.031-0.008-0.047-0.023-0.047c-0.016,0-0.023-0.016-0.023-0.047c-1.358-1.5-2.029-3-2.013-4.5
		C28.036,68.721,28.043,68.504,28.076,68.287z M32.771,68.783c0,0.592,0.236,1.105,0.71,1.541c0.474,0.451,1.017,0.678,1.629,0.678
		s1.155-0.227,1.629-0.678s0.71-0.969,0.71-1.553s-0.237-1.102-0.71-1.553s-1.017-0.678-1.629-0.678s-1.155,0.227-1.629,0.678
		S32.771,68.191,32.771,68.783z"/>
</g>
</svg>
